<?xml version="1.0" standalone="no"?>
<!DOCTYPE svg PUBLIC "-//W3C//DTD SVG 1.1//EN" "http://www.w3.org/Graphics/SVG/1.1/DTD/svg11.dtd" >
<svg>
<metadata>
Created by FontForge 20090622 at Fri Sep 15 13:58:12 2017
 By deploy user
</metadata>
<defs>
<font id="ITCKabelHellenicW15-Book" horiz-adv-x="500" >
  <font-face 
    font-family="ITCKabelHellenicW15-Book"
    font-weight="400"
    font-stretch="normal"
    units-per-em="1000"
    panose-1="2 0 5 0 8 0 0 2 0 4"
    ascent="770"
    descent="-230"
    x-height="502"
    cap-height="702"
    bbox="-248 -200 1000 838"
    underline-thickness="50"
    underline-position="-195"
    unicode-range="U+0002-U+2206"
  />
<missing-glyph horiz-adv-x="0" 
 />
    <glyph glyph-name=".notdef" horiz-adv-x="0" 
 />
    <glyph glyph-name=".null" horiz-adv-x="0" 
 />
    <glyph glyph-name="nonmarkingreturn" horiz-adv-x="333" 
 />
    <glyph glyph-name="uni0002" horiz-adv-x="0" 
 />
    <glyph glyph-name="uni0009" unicode="&#x9;" horiz-adv-x="0" 
 />
    <glyph glyph-name="uni000A" unicode="&#xa;" horiz-adv-x="0" 
 />
    <glyph glyph-name="space" unicode=" " horiz-adv-x="250" 
 />
    <glyph glyph-name="exclam" unicode="!" horiz-adv-x="222" 
d="M105 -6l-52 59l52 59l52 -59zM138 176l-57 -6v542l67 11z" />
    <glyph glyph-name="quotedbl" unicode="&#x22;" horiz-adv-x="333" 
d="M107 415h-58l58 271h58zM227 415h-58l58 271h58z" />
    <glyph glyph-name="numbersign" unicode="#" 
d="M488 415h-101l-21 -145h97l-3 -52h-100l-31 -218h-58l31 218h-129l-30 -218h-59l31 218h-106l3 52h110l20 145h-105l3 52h109l31 219h58l-31 -219h129l30 219h59l-31 -219h97zM200 415l-20 -145h129l20 145h-129z" />
    <glyph glyph-name="dollar" unicode="$" 
d="M461 217q0 -38 -12 -67.5t-34 -51t-51.5 -34.5t-64.5 -18v-101l-44 -9v110q-51 2 -97.5 25.5t-77.5 65.5l42 36q23 -32 58.5 -52.5t74.5 -22.5v225q-35 6 -64.5 17.5t-51 31t-34 46.5t-12.5 65q0 35 12.5 63.5t34.5 49t51.5 32t63.5 12.5v67l44 16v-83q42 -5 80 -22
t65 -49l-33 -36q-23 23 -51 38t-61 17v-213q31 -4 60.5 -16t52 -32t36 -47.5t13.5 -62.5zM255 588q-51 -2 -79.5 -25.5t-28.5 -74.5q0 -52 29.5 -77t78.5 -30v207zM407 206q0 52 -30 78.5t-78 32.5v-219q49 4 78.5 30t29.5 78z" />
    <glyph glyph-name="percent" unicode="%" horiz-adv-x="833" 
d="M233 -16h-49l337 580l-2 2q-1 -1 -2 -1.5t-2 -1.5l-19 -10q-9 -5 -18 -7.5t-19 -4t-25 -1.5q-14 0 -29 5.5t-26 13.5l-2 -2q7 -15 7 -43q0 -35 -13.5 -66t-37 -54.5t-54.5 -37t-66 -13.5q-36 0 -67 13.5t-54 37t-36.5 54.5t-13.5 66t13.5 66.5t36.5 55t54 37t67 13.5
q37 0 68.5 -14.5t54.5 -39.5q21 -18 47.5 -37t61.5 -19q22 0 41.5 10.5t36 26.5t30.5 35l26 38h51zM775 170q0 -36 -13.5 -67t-37 -54t-54.5 -36t-66 -13q-36 0 -67 13t-54 36t-36.5 54t-13.5 67q0 35 13.5 66t36.5 54.5t54 37t67 13.5q35 0 66 -13.5t54.5 -37t37 -54.5
t13.5 -66zM336 514q0 25 -10 48t-26.5 39.5t-39 26.5t-47.5 10q-26 0 -48 -10t-39 -26.5t-26.5 -39.5t-9.5 -48q0 -26 9.5 -48t26.5 -39t39 -26.5t48 -9.5q25 0 47.5 9.5t39 26.5t26.5 39t10 48zM727 170q0 25 -10 47.5t-26.5 39t-39 26.5t-47.5 10q-26 0 -48 -10t-39 -26.5
t-26.5 -39t-9.5 -47.5q0 -26 9.5 -48t26.5 -38.5t39 -26t48 -9.5q25 0 47.5 9.5t39 26t26.5 38.5t10 48z" />
    <glyph glyph-name="ampersand" unicode="&#x26;" horiz-adv-x="611" 
d="M454 167l120 -147l-47 -28l-113 136l-45 -44q-22 -24 -46.5 -44.5t-53 -34t-61.5 -13.5q-36 0 -67.5 12.5t-54 35t-35.5 53.5t-13 68q0 36 12 64t31 52t42 46l48 45l26 26q-28 34 -48 73.5t-20 84.5q0 69 41 109.5t108 40.5q25 0 49.5 -9t43.5 -25.5t30.5 -39.5t11.5 -50
q0 -32 -14.5 -58.5t-35.5 -50t-45 -44.5t-44 -41l48 -58l31 -37q12 -14 19 -23l12 -16l14 -16l20 -26l125 122l39 -38zM355 580q0 31 -24.5 50.5t-57.5 19.5q-45 0 -65.5 -29t-20.5 -71q0 -36 17 -69t37 -56l37 30q20 16 37 35t28.5 41t11.5 49zM231 350q-21 -22 -44.5 -42
t-44 -42t-33.5 -48t-13 -60q0 -48 31.5 -78t79.5 -30q27 0 50.5 13.5t44.5 32.5t40.5 40t37.5 36z" />
    <glyph glyph-name="quotesingle" unicode="'" horiz-adv-x="222" 
d="M111 415h-56l1 6l10 44l17 85l28 136h58zM52 408q0 -4 1 -2q1 1 2 9h-2q0 -3 -1 -7z" />
    <glyph glyph-name="parenleft" unicode="(" horiz-adv-x="333" 
d="M256 -147q-114 72 -178.5 179t-64.5 245t65 245.5t180 179.5l16 -48q-98 -72 -153 -163.5t-55 -216.5q0 -126 54.5 -218.5t159.5 -158.5z" />
    <glyph glyph-name="parenright" unicode=")" horiz-adv-x="333" 
d="M320 278q0 -138 -65 -245.5t-180 -179.5l-16 48q98 72 153 163.5t55 216.5q0 126 -54.5 218.5t-159.5 158.5l24 44q114 -72 178.5 -179t64.5 -245z" />
    <glyph glyph-name="asterisk" unicode="*" horiz-adv-x="444" 
d="M261 515l129 -68l-15 -44l-131 76v-140l-47 -12v152l-120 -71l-30 35l132 76l-125 67l14 44l129 -74v135l47 11v-147l119 70l34 -36z" />
    <glyph glyph-name="plus" unicode="+" horiz-adv-x="600" 
d="M329 222v-222h-58v222h-222v58h222v222h58v-222h222v-58h-222z" />
    <glyph glyph-name="comma" unicode="," horiz-adv-x="250" 
d="M86 -184h-56l84 256l75 11z" />
    <glyph glyph-name="hyphen" unicode="-" horiz-adv-x="333" 
d="M39 224v54h255v-54h-255z" />
    <glyph glyph-name="hyphen" unicode="&#xad;" horiz-adv-x="333" 
d="M39 224v54h255v-54h-255z" />
    <glyph glyph-name="period" unicode="." horiz-adv-x="250" 
d="M125 -6l-52 59l52 59l52 -59z" />
    <glyph glyph-name="slash" unicode="/" horiz-adv-x="278" 
d="M50 -16h-50l229 718h50z" />
    <glyph glyph-name="zero" unicode="0" 
d="M469 343q0 -31 -5 -69.5t-16 -78.5t-28 -78t-41.5 -67.5t-56.5 -47.5t-72 -18t-72 18t-56.5 47.5t-41.5 67.5t-28 78t-16 78.5t-5 69.5t5 69.5t16 78.5t28 78t41.5 67.5t56.5 47.5t72 18t72 -18t56.5 -47.5t41.5 -67.5t28 -78t16 -78.5t5 -69.5zM405 343q0 33 -8 84
t-26 99.5t-48 83t-73 34.5q-29 0 -52 -16t-40 -42.5t-29 -59t-19.5 -66t-11 -64.5t-3.5 -53t3.5 -53t11 -64.5t19.5 -66t29 -59t40 -42.5t52 -16q43 0 73 34.5t48 83t26 99.5t8 84z" />
    <glyph glyph-name="one" unicode="1" 
d="M259 -8v630l-179 -100l-18 43l259 158h2v-723z" />
    <glyph glyph-name="two" unicode="2" 
d="M469 473q0 -31 -11.5 -62t-29.5 -59.5t-39.5 -54.5t-41.5 -47l-188 -192h306l-10 -58h-426l213 224l55 57q29 29 53 61t39.5 67.5t15.5 77.5q0 35 -11.5 64t-32.5 49.5t-50 32t-64 11.5q-32 0 -60 -11.5t-48.5 -31.5t-32.5 -48t-12 -61q0 -72 41 -114.5t110 -53.5
l-40 -49q-38 6 -70 25t-55.5 47.5t-36.5 64t-13 73.5q0 46 16.5 85.5t45.5 69t68 46t85 16.5q49 0 90.5 -17t71 -48t46 -73t16.5 -91z" />
    <glyph glyph-name="three" unicode="3" 
d="M451 186q0 -47 -18 -84.5t-49 -63.5t-71 -40t-85 -14q-66 0 -121 35.5t-84 95.5l52 33q22 -48 60 -77t92 -29q34 0 63 9.5t50.5 28.5t34 47t12.5 65t-12 63t-33.5 42.5t-50 25t-61.5 11.5q-29 3 -61 3v53q21 -2 42 0q29 2 57.5 8.5t50.5 21t35.5 37.5t13.5 58
q0 30 -10 54t-28 40.5t-42 25.5t-52 9q-51 0 -86.5 -22t-67.5 -58l-41 40q23 24 44 42t43.5 30.5t49 19t60.5 6.5q39 0 74.5 -12.5t62 -35.5t42 -56t15.5 -74q0 -57 -29 -95.5t-80 -61.5q60 -23 94 -70.5t34 -110.5z" />
    <glyph glyph-name="four" unicode="4" 
d="M466 192h-108v-192l-64 -8v200h-293l32 48l323 483h2v-473h118zM294 551h-2l-194 -301h196v301z" />
    <glyph glyph-name="five" unicode="5" 
d="M454 213q0 -54 -19 -96.5t-51 -72t-73 -45t-86 -15.5q-67 0 -123.5 27.5t-85.5 75.5l45 41q32 -38 72 -62t91 -24q36 0 66 13t52.5 36t35 54t12.5 66q0 37 -13 68t-35.5 53.5t-53.5 35.5t-67 13q-43 0 -73.5 -12.5t-66.5 -35.5v353h326l-15 -58h-247v-207q42 18 88 18
t86.5 -18t70.5 -49t47 -72t17 -87z" />
    <glyph glyph-name="six" unicode="6" 
d="M470 233q0 -53 -16 -98.5t-44.5 -79t-68 -52.5t-85.5 -19q-52 0 -93 20.5t-70 55.5t-44.5 81t-15.5 97q0 65 26 135t66.5 135.5t90 121.5t96.5 93l44 -37q-60 -54 -115 -116t-94 -134l2 -2q24 17 52 29.5t59 12.5q48 0 87 -20.5t66.5 -54.5t42 -78t14.5 -90zM406 240
q0 37 -9.5 70t-29 58.5t-48 40.5t-66.5 15q-40 0 -69.5 -17t-48.5 -45t-28.5 -64t-9.5 -73q0 -38 12 -71.5t33.5 -58t51.5 -39t65 -14.5q37 0 64.5 17.5t46 45.5t27.5 63.5t9 71.5z" />
    <glyph glyph-name="seven" unicode="7" 
d="M213 0l-69 -8l243 636h-352l11 58h425z" />
    <glyph glyph-name="eight" unicode="8" 
d="M470 185q0 -47 -18 -84t-48 -63t-70 -40t-83 -14q-46 0 -86 14t-70 41t-47.5 65.5t-17.5 86.5q0 29 10.5 56.5t28.5 50t42.5 38.5t52.5 23v2q-24 5 -45 19.5t-36.5 35t-24.5 45t-9 48.5q0 44 14.5 80t40 61t61.5 38.5t79 13.5q41 0 79 -12t67 -35.5t46 -58t17 -79.5
q0 -54 -31.5 -94.5t-79.5 -61.5q57 -21 92.5 -67t35.5 -109zM389 511q0 63 -38 98t-96 35q-63 0 -102.5 -35.5t-39.5 -104.5q0 -30 12 -52.5t32.5 -37.5t46.5 -22.5t53 -7.5q28 0 52 9t42 26t28 40t10 52zM406 191q0 33 -13 59t-34.5 44.5t-49.5 28t-59 9.5q-72 0 -114 -41
t-42 -113q0 -31 13.5 -56t35 -43t49 -27.5t54.5 -9.5q32 0 61 10t51 29t35 46.5t13 63.5z" />
    <glyph glyph-name="nine" unicode="9" 
d="M468 448q0 -63 -24.5 -132t-64.5 -134.5t-89.5 -122.5t-99.5 -96l-44 37q60 55 114.5 116.5t94.5 133.5l-2 2q-24 -17 -52 -29.5t-59 -12.5q-48 0 -87 20.5t-66.5 54t-42.5 77.5t-15 91q0 53 16 98.5t45 79t68 52.5t86 19q52 0 93 -20.5t69.5 -55.5t44 -81t15.5 -97z
M404 460q0 39 -12 72.5t-33.5 58t-51 39t-64.5 14.5q-37 0 -64.5 -17.5t-46 -45.5t-28 -63.5t-9.5 -71.5q0 -37 10 -70t29.5 -58.5t48 -40.5t66.5 -15q40 0 69.5 17t48.5 44.5t28 63t9 73.5z" />
    <glyph glyph-name="colon" unicode=":" horiz-adv-x="250" 
d="M125 -6l-52 59l52 59l52 -59zM125 254l-52 59l52 59l52 -59z" />
    <glyph glyph-name="semicolon" unicode=";" horiz-adv-x="250" 
d="M52 -184h-54l82 256l75 11zM125 254l-52 59l52 59l52 -59z" />
    <glyph glyph-name="less" unicode="&#x3c;" horiz-adv-x="600" 
d="M46 224v54l508 232v-62l-436 -197l436 -197v-62z" />
    <glyph glyph-name="equal" unicode="=" horiz-adv-x="600" 
d="M49 123v58h502v-58h-502zM49 321v58h502v-58h-502z" />
    <glyph glyph-name="greater" unicode="&#x3e;" horiz-adv-x="600" 
d="M46 -8v62l436 197l-436 197v62l508 -232v-54z" />
    <glyph glyph-name="question" unicode="?" horiz-adv-x="444" 
d="M240 -6l-52 59l52 59l52 -59zM417 531q0 -41 -12 -68t-29.5 -47t-38 -35t-38 -31t-29.5 -36t-12 -50v-67l-48 -12v122q0 27 11 44.5t27.5 31t36 25.5t36 29t27.5 41t11 61q0 26 -10 49t-27.5 40t-40.5 27t-49 10q-32 0 -55 -7.5t-41 -21.5t-31.5 -34.5t-26.5 -47.5
l-50 27q29 63 75 102.5t119 39.5q40 0 76 -14.5t62 -40.5t41.5 -61t15.5 -76z" />
    <glyph glyph-name="at" unicode="@" horiz-adv-x="800" 
d="M742 404q0 -59 -21.5 -109.5t-54 -87.5t-72 -58t-75.5 -21q-29 0 -45 17.5t-18 45.5h-2q-23 -23 -55 -43t-68 -20q-31 0 -55.5 11.5t-42 31.5t-27 47t-9.5 57q0 50 16.5 99.5t46.5 89.5t72.5 64.5t94.5 24.5q34 0 62 -18.5t45 -61.5l23 62h56l-89 -278q-5 -15 -8 -29.5
t-2.5 -25.5t5.5 -18t17 -7q28 0 54.5 21t47.5 54t33.5 72.5t12.5 76.5q0 58 -21.5 104t-58.5 78.5t-85 49.5t-102 17q-65 0 -120.5 -24.5t-95.5 -67t-62.5 -99t-22.5 -120.5q0 -63 23.5 -118t64.5 -96.5t96.5 -65t119.5 -23.5q72 0 138.5 32.5t109.5 89.5h55
q-22 -41 -55 -73t-73 -54.5t-85 -34.5t-90 -12q-77 0 -143 28.5t-114.5 77.5t-76.5 115t-28 141q0 74 28.5 139t77.5 113t114 76t137 28q67 0 127 -22t104 -62t70 -94.5t26 -119.5zM503 404q0 19 -6.5 36.5t-17.5 31t-25 21.5t-29 8q-36 0 -66 -21.5t-51.5 -54.5
t-33.5 -71.5t-12 -72.5q0 -46 24 -73.5t60 -27.5q33 0 62 23t50 57t33 73t12 71z" />
    <glyph glyph-name="A" unicode="A" horiz-adv-x="667" 
d="M624 -14l-141 284h-294l-139 -286l-66 16l349 702h2l349 -702zM334 561l-4 -7q-3 -7 -11 -22l-20 -40l-32 -65l-48 -95h229z" />
    <glyph glyph-name="B" unicode="B" 
d="M456 186q0 -91 -52.5 -138.5t-163.5 -47.5h-172v686h174q88 0 141 -43t53 -137q0 -107 -90 -151q57 -28 83.5 -67t26.5 -102zM374 505q0 58 -36 88.5t-88 30.5h-120v-245h94q75 0 112.5 33t37.5 93zM388 186q0 57 -33.5 94t-99.5 37h-125v-255h105q46 0 75.5 10t47 27
t24 39.5t6.5 47.5z" />
    <glyph glyph-name="C" unicode="C" horiz-adv-x="556" 
d="M505 16q-29 -14 -63 -23t-66 -9q-70 0 -133.5 27.5t-111.5 75.5t-76.5 113.5t-28.5 142.5q0 76 28.5 142t76.5 114t111.5 75.5t133.5 27.5q32 0 66 -9t63 -23l9 -76q-21 17 -59.5 31.5t-83.5 14.5q-59 0 -110 -23.5t-88 -63.5t-58 -94.5t-21 -115.5q0 -62 21 -116t58 -94
t88 -63.5t110 -23.5q48 0 85 14.5t58 31.5z" />
    <glyph glyph-name="D" unicode="D" horiz-adv-x="611" 
d="M579 347q0 -73 -25.5 -136.5t-70 -110t-106 -73.5t-133.5 -27h-176v686h176q70 0 131.5 -25.5t106.5 -71t71 -107.5t26 -135zM511 347q0 59 -18 110t-52.5 88t-83.5 58t-111 21h-116v-562h101q61 0 112.5 21.5t88.5 59.5t58 90t21 114z" />
    <glyph glyph-name="E" unicode="E" 
d="M463 0h-389v686h371l12 -62h-321v-245h275v-62h-275v-255h338z" />
    <glyph glyph-name="F" unicode="F" horiz-adv-x="389" 
d="M136 624v-245h189v-62h-189v-317l-62 -8v694h292l12 -62h-242z" />
    <glyph glyph-name="G" unicode="G" horiz-adv-x="667" 
d="M620 77q-60 -45 -121.5 -69t-127.5 -24q-71 0 -133.5 27t-109.5 75.5t-74.5 115t-27.5 146.5q0 69 25 133t71.5 113t113 78.5t149.5 29.5q28 0 58.5 -6.5t60.5 -18.5t57 -28.5t47 -36.5l-38 -48q-19 15 -41 28.5t-45.5 24t-48.5 17t-49 6.5q-64 0 -117.5 -23.5
t-92.5 -63.5t-60.5 -93t-21.5 -112q0 -62 22.5 -117t61 -96t90 -65t109.5 -24q52 0 95.5 18t85.5 49v197h-220l20 62h262v-295z" />
    <glyph glyph-name="H" unicode="H" horiz-adv-x="667" 
d="M530 -8v325h-394v-317l-62 -8v694l62 16v-323h394v307l62 16v-702z" />
    <glyph glyph-name="I" unicode="I" horiz-adv-x="222" 
d="M80 -8v694l62 16v-702z" />
    <glyph glyph-name="J" unicode="J" horiz-adv-x="389" 
d="M314 214q0 -52 -7.5 -94.5t-28 -72.5t-56 -46.5t-92.5 -16.5q-29 0 -62.5 10.5t-54.5 30.5l29 61q15 -17 40.5 -28.5t51.5 -11.5q35 0 58 12t36.5 32.5t18.5 48t5 57.5v490l62 16v-488z" />
    <glyph glyph-name="K" unicode="K" 
d="M449 -8l-314 364h-7v-356l-62 -8v694l62 16v-334h7l290 334l70 -21l-275 -316l296 -343z" />
    <glyph glyph-name="L" unicode="L" horiz-adv-x="389" 
d="M367 0h-293v686l62 16v-640h250z" />
    <glyph glyph-name="M" unicode="M" horiz-adv-x="778" 
d="M700 -8l-98 508h-2l-208 -516h-2l-216 516h-2l-94 -508l-62 8l140 702h2l233 -559l231 559h2l138 -702z" />
    <glyph glyph-name="N" unicode="N" horiz-adv-x="667" 
d="M594 -16l-459 554h-2v-538l-62 -8v710h2l459 -551h2v535l62 12v-714h-2z" />
    <glyph glyph-name="O" unicode="O" horiz-adv-x="778" 
d="M752 343q0 -75 -29 -140t-78.5 -114t-115.5 -77t-140 -28t-140 28t-115.5 77t-78.5 114t-29 140t29 140t78.5 114t115.5 77t140 28t140 -28t115.5 -77t78.5 -114t29 -140zM684 343q0 61 -23.5 115t-64 94.5t-94 64t-113.5 23.5t-113.5 -23.5t-94 -64t-64 -94.5
t-23.5 -115t23.5 -115t64 -94.5t94 -64t113.5 -23.5t113.5 23.5t94 64t64 94.5t23.5 115z" />
    <glyph glyph-name="P" unicode="P" horiz-adv-x="444" 
d="M423 458q0 -112 -64 -170t-185 -58h-47v-230l-62 -8v694h129q105 0 167 -59t62 -169zM355 458q0 78 -41 122t-110 44h-77v-332h57q85 0 128 44t43 122z" />
    <glyph glyph-name="Q" unicode="Q" horiz-adv-x="778" 
d="M731 -65l-129 119q-45 -33 -99 -51.5t-114 -18.5q-74 0 -140 28t-115.5 77t-78.5 114t-29 140t29 140t78.5 114t115.5 77t140 28t140 -28t115.5 -77t78.5 -114t29 -140q0 -72 -26 -135t-74 -111l130 -119zM684 343q0 60 -23.5 114t-64 94.5t-94 64.5t-113.5 24
t-113.5 -24t-94 -64.5t-64 -94.5t-23.5 -114t23.5 -114t64 -94.5t94 -64.5t113.5 -24q93 0 164 53l-97 89l51 42l96 -88q38 40 59.5 91.5t21.5 109.5z" />
    <glyph glyph-name="R" unicode="R" horiz-adv-x="444" 
d="M390 -8l-256 335h-4v-327l-62 -8v694h138q43 0 79.5 -14.5t63.5 -41t42 -63.5t15 -82q0 -78 -42.5 -130t-120.5 -66l210 -264zM338 485q0 25 -8.5 50t-24.5 44.5t-38.5 32t-49.5 12.5h-87v-285h86q62 0 92 41t30 105z" />
    <glyph glyph-name="S" unicode="S" 
d="M466 188q0 -47 -16.5 -84.5t-45.5 -64t-68.5 -41t-84.5 -14.5q-70 0 -125.5 28.5t-91.5 91.5l48 38q32 -49 71.5 -72.5t98.5 -23.5q63 0 104.5 35t41.5 101q0 48 -26 74t-65 42.5t-85 29t-85 32.5t-65 54t-26 94q0 47 17 83t46.5 61t68.5 37.5t83 12.5q51 0 99 -22
t82 -60l-38 -46q-32 29 -65 47.5t-78 18.5q-30 0 -56.5 -8t-47 -23.5t-32 -39.5t-11.5 -57q0 -43 26 -66.5t65 -39.5t85 -29t85 -35t65 -57.5t26 -96.5z" />
    <glyph glyph-name="T" unicode="T" horiz-adv-x="444" 
d="M253 624v-624l-62 -8v632h-190l14 62h419v-62h-181z" />
    <glyph glyph-name="U" unicode="U" horiz-adv-x="611" 
d="M546 217q0 -55 -17 -98t-48 -73t-75.5 -46t-99.5 -16t-99.5 16t-75.5 46t-48 73t-17 98v469l62 16v-487q0 -27 11 -57t33 -55t55.5 -41t78.5 -16q42 0 75 15.5t56 41.5t35 60t12 71v452l62 16v-485z" />
    <glyph glyph-name="V" unicode="V" horiz-adv-x="611" 
d="M302 -16h-2l-318 702l65 16l254 -564q4 8 15 33l43 89l80 168l130 274l65 -16zM299 134q-2 -4 1 3v1q0 -1 -1 -4z" />
    <glyph glyph-name="W" unicode="W" horiz-adv-x="833" 
d="M552 -16h-2l-136 323q-1 -2 -4 -9l-12 -30l-24 -56l-38 -92l-57 -136h-2l-297 702l67 16l231 -558l99 242l-125 300l64 16l98 -232q1 3 6 14l16 36l30 70l48 112l58 -16l-121 -300l103 -242l228 558l70 -16z" />
    <glyph glyph-name="X" unicode="X" horiz-adv-x="556" 
d="M519 -8l-237 318l-229 -318l-64 27l253 351l-220 296l52 28l208 -277l190 277l56 -28l-208 -302l260 -340z" />
    <glyph glyph-name="Y" unicode="Y" 
d="M163 -8l-71 16l139 251l-256 427l64 16l227 -376q3 5 12 22l32 60l59 112l95 182l68 -16z" />
    <glyph glyph-name="Z" unicode="Z" horiz-adv-x="556" 
d="M529 0h-516l400 624h-381l14 62h481l-399 -624h414z" />
    <glyph glyph-name="bracketleft" unicode="[" horiz-adv-x="278" 
d="M35 -140v826h164v-48h-111v-730h111v-48h-164z" />
    <glyph glyph-name="backslash" unicode="\" horiz-adv-x="278" 
d="M293 -16l-364 718h55l364 -718h-55z" />
    <glyph glyph-name="bracketright" unicode="]" horiz-adv-x="278" 
d="M79 -140v48h111v730h-111v48h164v-826h-164z" />
    <glyph glyph-name="asciicircum" unicode="^" horiz-adv-x="600" 
d="M490 243l-191 376l-188 -376h-64l224 443h58l224 -443h-63z" />
    <glyph glyph-name="underscore" unicode="_" 
d="M0 -125v74h500v-74h-500z" />
    <glyph glyph-name="grave" unicode="`" horiz-adv-x="222" 
d="M122 566l-136 139h77l111 -139h-52z" />
    <glyph glyph-name="a" unicode="a" horiz-adv-x="444" 
d="M332 -12v63h-2q-15 -28 -46.5 -45.5t-76.5 -17.5q-39 0 -73.5 12t-60.5 34.5t-41.5 55t-15.5 73.5q0 42 13 76.5t37 60t58 39.5t76 14q38 0 72 -17.5t60 -40.5v84q0 32 -33.5 54.5t-84.5 22.5q-36 0 -74.5 -14.5t-71.5 -25.5l19 68q35 14 71.5 22t74.5 8q29 0 57.5 -8
t50.5 -23.5t35.5 -39.5t13.5 -56v-387zM332 170q0 57 -34.5 91t-88.5 34q-29 0 -53.5 -9.5t-42.5 -26.5t-28.5 -41.5t-10.5 -54.5q0 -28 12 -49.5t31.5 -36.5t44 -23t49.5 -8q54 0 87.5 35t33.5 89z" />
    <glyph glyph-name="b" unicode="b" horiz-adv-x="611" 
d="M581 257q0 -55 -20 -104t-55 -85.5t-83 -58t-103 -21.5q-63 0 -112.5 19.5t-83.5 55.5t-52 86.5t-18 112.5v450l58 12v-317q45 51 98 79t119 28q52 0 97.5 -18t80 -51.5t54.5 -81t20 -106.5zM523 249q1 45 -14 83t-42.5 65.5t-65.5 43t-83 15.5q-43 0 -80.5 -15.5
t-65.5 -43.5t-44 -66.5t-16 -84.5q0 -44 17 -81t45.5 -63.5t66.5 -41t80 -14.5q44 0 81 15.5t63.5 42.5t41.5 64t16 81z" />
    <glyph glyph-name="c" unicode="c" 
d="M431 408q-23 20 -57 34t-82 14q-45 0 -83.5 -15.5t-66 -43t-43.5 -65.5t-16 -83q0 -40 15 -77t41 -65t62 -44.5t78 -16.5q83 0 149 51l36 -45q-31 -29 -80 -46.5t-100 -17.5q-54 0 -101.5 19.5t-82.5 55t-55 85t-20 108.5q0 58 22.5 105.5t60 81.5t86 52.5t101.5 18.5
q46 0 90 -16.5t82 -42.5z" />
    <glyph glyph-name="d" unicode="d" horiz-adv-x="611" 
d="M494 -12v96h-2q-14 -19 -35 -36t-47 -30.5t-55.5 -21.5t-59.5 -8q-55 0 -102.5 19t-83 54t-56 84t-20.5 108q0 55 20 102.5t55.5 83t83 55.5t101.5 20q63 0 112.5 -28.5t86.5 -70.5h2v297l58 12v-724zM494 250q0 49 -16.5 87t-44.5 64.5t-65 40.5t-78 14
q-45 0 -81.5 -17.5t-62.5 -46.5t-40.5 -65.5t-14.5 -73.5q0 -44 14.5 -82t40.5 -65.5t63.5 -43.5t82.5 -16q42 0 79 16.5t64 44.5t43 65t16 78z" />
    <glyph glyph-name="e" unicode="e" 
d="M101 163q8 -17 23.5 -37.5t38 -38t52 -29.5t64.5 -12q55 0 101.5 24.5t88.5 58.5v-70q-17 -17 -39 -30t-47 -22t-51 -14t-49 -5q-58 0 -106 20.5t-82 57t-53 85.5t-19 106t20 104.5t55 81t83 52.5t104 19q34 0 65.5 -10t57 -26.5t45 -37.5t30.5 -43zM392 412
q-17 19 -44.5 31.5t-62.5 12.5q-44 0 -81.5 -15.5t-64.5 -42.5t-42.5 -63.5t-15.5 -78.5q0 -10 1 -20.5t3 -20.5z" />
    <glyph glyph-name="f" unicode="f" horiz-adv-x="278" 
d="M299 666q-39 0 -67 -2t-46.5 -14t-27.5 -37t-9 -71v-40h143v-58h-143v-444l-58 -12v456h-68l14 58h54v52q0 55 15.5 88.5t42 51.5t61.5 24t74 6q2 -7 2.5 -9.5t2 -7t3.5 -13.5t7 -28z" />
    <glyph glyph-name="g" unicode="g" 
d="M445 472q-12 -4 -21.5 -5.5t-22.5 -1.5q-14 0 -27 3l-2 -2q32 -26 54 -59.5t22 -78.5q0 -52 -30.5 -93.5t-78.5 -60.5q52 -24 83.5 -65t31.5 -101q0 -45 -19.5 -81t-51.5 -60.5t-73.5 -37.5t-85.5 -13q-69 0 -126 34t-96 88l44 33q35 -42 79 -69.5t104 -27.5q27 0 56 8
t54 24t41 39.5t16 54.5q0 32 -14 59t-37 46t-52 29.5t-59 10.5q-36 0 -66.5 -8t-64.5 -21l21 66q-20 9 -37.5 24t-30.5 34t-21 40.5t-8 43.5q0 45 17 80.5t45.5 59.5t66.5 37t80 13q15 0 30.5 -1t30.5 -1q42 0 82.5 5.5t82.5 13.5zM390 327q0 31 -13.5 56t-35 42t-49 26
t-55.5 9q-29 0 -56 -9t-48.5 -26t-34.5 -42t-13 -56t13 -54.5t34 -40t48 -25t56 -8.5q28 0 55.5 8.5t49.5 25t35.5 40t13.5 54.5z" />
    <glyph glyph-name="h" unicode="h" 
d="M388 -8v358q0 55 -33.5 83.5t-93.5 28.5q-21 0 -46.5 -8t-48.5 -24.5t-38.5 -42.5t-15.5 -62v-325l-58 -8v720l58 12v-283h2q20 34 59.5 53.5t85.5 19.5q36 0 70 -8t60 -28.5t41.5 -54.5t15.5 -86v-337z" />
    <glyph glyph-name="i" unicode="i" horiz-adv-x="222" 
d="M82 -12v514l58 12v-514zM106 620l-46 52l46 52l46 -52z" />
    <glyph glyph-name="j" unicode="j" horiz-adv-x="222" 
d="M140 -5q0 -97 -51.5 -138t-140.5 -41q-3 7 -4 10.5t-2 8.5l-5 14l-10 29q16 -4 37 -4q34 0 56.5 9t36 29t19.5 52t6 79v459l58 12v-519zM106 620l-46 52l46 52l46 -52z" />
    <glyph glyph-name="k" unicode="k" horiz-adv-x="389" 
d="M369 -8l-125 122l-77 75l-41 40l-16 15q-1 2 -2 2l2 -2v-244l-58 -12v724l58 12v-466l-1 -2q-1 -1 2 3l13 15l36 41l68 79l108 126l46 -28l-203 -236q2 -2 2 -1.5t3.5 -3.5l13.5 -15l36 -35l66 -67l106 -108z" />
    <glyph glyph-name="l" unicode="l" horiz-adv-x="222" 
d="M82 -12v724l58 12v-724z" />
    <glyph glyph-name="m" unicode="m" horiz-adv-x="778" 
d="M657 -8v362q0 48 -29 78t-77 30q-69 0 -101 -41t-32 -110v-311l-58 -8v362q0 48 -29 78t-77 30q-69 0 -101 -41t-32 -110v-311l-58 -8v510l58 12v-86h2q9 19 24 34.5t34 27t38.5 18t37.5 6.5q30 0 51.5 -5t38 -15.5t30 -26t27.5 -36.5q26 38 63.5 60.5t79.5 22.5
q34 0 65 -8.5t53.5 -26.5t36 -46t13.5 -67v-366z" />
    <glyph glyph-name="n" unicode="n" 
d="M388 -8v358q0 55 -33.5 83.5t-93.5 28.5q-21 0 -46.5 -8t-48.5 -24.5t-38.5 -42.5t-15.5 -62v-325l-58 -8v510l58 12v-83h2q20 34 59.5 58.5t85.5 24.5q36 0 70 -8t60 -28.5t41.5 -54.5t15.5 -86v-337z" />
    <glyph glyph-name="o" unicode="o" horiz-adv-x="556" 
d="M535 251q0 -51 -19.5 -98t-53.5 -84t-81.5 -59t-102.5 -22q-56 0 -103 22t-81 59t-53.5 84t-19.5 98t19.5 98t53.5 84t81 59t103 22q55 0 102.5 -22t81.5 -59t53.5 -84t19.5 -98zM477 251q0 40 -15 77t-42 65.5t-63.5 45.5t-78.5 17t-78.5 -17t-63.5 -45.5t-42 -65.5
t-15 -77t15 -77t42 -65.5t63.5 -45.5t78.5 -17t78.5 17t63.5 45.5t42 65.5t15 77z" />
    <glyph glyph-name="p" unicode="p" horiz-adv-x="611" 
d="M578 249q0 -55 -20 -102.5t-55.5 -83t-83 -55.5t-101.5 -20q-63 0 -113.5 24t-85.5 69h-2v-253l-58 -12v686l58 12v-116h2q29 54 81.5 85t115.5 31q55 0 102.5 -21.5t83 -58t56 -84.5t20.5 -101zM520 249q0 44 -14.5 82t-40.5 65.5t-63.5 43.5t-82.5 16q-42 0 -79 -16.5
t-64 -44.5t-43 -65t-16 -78q0 -49 16.5 -87t44.5 -64.5t65 -40.5t78 -14q45 0 81.5 17.5t62.5 46.5t40.5 65t14.5 74z" />
    <glyph glyph-name="q" unicode="q" horiz-adv-x="611" 
d="M494 -184v269h-2q-37 -42 -86.5 -69.5t-112.5 -27.5q-54 0 -101.5 20t-83 55.5t-55.5 83t-20 102.5q0 53 20.5 101t56 84.5t83 58t102.5 21.5q62 0 115 -30.5t82 -78.5h2v97l58 12v-686zM494 252q0 41 -16 78t-43 65t-64 44.5t-79 16.5q-45 0 -82.5 -16t-63.5 -43.5
t-40.5 -65.5t-14.5 -82q0 -38 14.5 -74t40.5 -65t62.5 -46.5t81.5 -17.5q41 0 78 14t65 40.5t44.5 64.5t16.5 87z" />
    <glyph glyph-name="r" unicode="r" horiz-adv-x="278" 
d="M274 455q-3 1 -11 1h-12q-24 0 -48.5 -14t-45 -40.5t-33.5 -64.5t-13 -85v-252l-58 -12v514l58 12v-112h2q14 33 32.5 55t41.5 34.5t51 17.5t61 5z" />
    <glyph glyph-name="s" unicode="s" horiz-adv-x="389" 
d="M353 142q0 -39 -14 -68t-38.5 -48t-57 -28.5t-69.5 -9.5q-48 0 -88 20.5t-69 55.5l44 37q29 -27 57 -41t69 -14q45 0 76.5 23.5t31.5 69.5q0 31 -19.5 48t-49 28t-64 19.5t-64 23.5t-49 40.5t-19.5 69.5q0 34 14 61.5t37 46t53 28.5t62 10q46 0 80 -16.5t70 -42.5
l-33 -46q-26 20 -55.5 33.5t-64.5 13.5q-43 0 -74 -21t-31 -64q0 -32 19.5 -48t49 -26t64 -18t64 -23t49 -41.5t19.5 -72.5z" />
    <glyph glyph-name="t" unicode="t" horiz-adv-x="278" 
d="M267 -2l-26 -4q-13 -2 -26 -2q-69 0 -106 37t-37 106v309h-67l14 58h53v123l58 32v-155h136v-58h-136v-310q0 -46 21 -65t69 -19h23q6 0 12 0.5t12 1.5v-54z" />
    <glyph glyph-name="u" unicode="u" 
d="M388 -8v83h-2q-15 -34 -57 -60.5t-100 -26.5q-48 0 -81 13t-54 37t-30.5 58.5t-9.5 77.5v328l58 12v-333q0 -69 28 -105t94 -36q35 0 63.5 8.5t48.5 34t31 71.5t11 122v226l58 12v-514z" />
    <glyph glyph-name="v" unicode="v" horiz-adv-x="444" 
d="M223 -12h-2l-242 514l56 12l187 -386l11 23l29 61l54 115l87 187l62 -12z" />
    <glyph glyph-name="w" unicode="w" horiz-adv-x="778" 
d="M573 -12h-2l-188 397l-1 -3l-177 -394h-2l-223 514l57 12l167 -383l1 3l180 380l1 -2l186 -381l1 3l169 380l56 -12z" />
    <glyph glyph-name="x" unicode="x" horiz-adv-x="444" 
d="M391 -8l-171 219l-2 -3l-160 -216l-55 24l178 244l-179 230l52 24l166 -211l2 3l159 208l52 -24l-176 -230l186 -244z" />
    <glyph glyph-name="y" unicode="y" horiz-adv-x="444" 
d="M133 -184l-56 12l124 259l-225 415l57 12l201 -366l2 4l174 362l58 -12z" />
    <glyph glyph-name="z" unicode="z" 
d="M120 58h357l-15 -58h-456l357 444h-313l13 58h416z" />
    <glyph glyph-name="braceleft" unicode="{" horiz-adv-x="333" 
d="M218 -147q-38 0 -61 30t-23 84v153q0 27 -3.5 51.5t-12 43.5t-21.5 30t-31 11v42q18 0 31 11.5t21.5 30t12 43t3.5 50.5v155q0 54 23 84t61 30h50v-48h-41q-22 0 -31 -26.5t-9 -61.5v-148q0 -36 -8.5 -61.5t-20 -42.5t-22.5 -25.5t-17 -10.5v-1q6 -3 17 -11.5t22.5 -25.5
t20 -43t8.5 -62v-146q0 -34 9 -61t30 -27h42v-48h-50z" />
    <glyph glyph-name="bar" unicode="|" horiz-adv-x="222" 
d="M82 -183v904h58v-904h-58z" />
    <glyph glyph-name="braceright" unicode="}" horiz-adv-x="333" 
d="M267 257q-18 0 -31 -11.5t-21.5 -30t-12 -43t-3.5 -50.5v-155q0 -54 -23 -84t-61 -30h-50v48h41q22 0 31 26.5t9 61.5v148q0 36 8.5 61.5t20 42.5t22.5 25.5t17 10.5v1q-6 3 -17 11.5t-22.5 25.5t-20 43t-8.5 62v146q0 34 -9 61t-30 27h-42v48h50q38 0 61 -30t23 -84
v-153q0 -27 3.5 -51.5t12 -43.5t21.5 -30t31 -11v-42z" />
    <glyph glyph-name="asciitilde" unicode="~" horiz-adv-x="600" 
d="M531 275q-11 -16 -23 -31.5t-27 -27.5t-33.5 -19.5t-41.5 -7.5q-30 0 -54.5 10.5t-49.5 23.5t-51.5 23.5t-61.5 10.5q-17 0 -29.5 -6.5t-23 -16.5t-18 -23t-13.5 -26l-36 42q8 16 19 31.5t26.5 27.5t35 19.5t44.5 7.5q28 0 57.5 -10.5t57.5 -23.5l54 -24q25 -10 44 -10
q15 0 27.5 6.5t23 16.5t19.5 23l18 26z" />
    <glyph glyph-name="uni00A0" unicode="&#xa0;" horiz-adv-x="250" 
 />
    <glyph glyph-name="sterling" unicode="&#xa3;" 
d="M481 208q0 -46 -11.5 -84t-35 -65.5t-58.5 -43t-82 -15.5h-284v62h86v260h-86l21 62h65v73q0 74 14.5 121.5t38.5 75t54 38t60 10.5q38 0 66.5 -15.5t48 -40.5t31 -57t15.5 -64l-52 -9q-1 24 -8 48t-20 43t-33 31t-48 12q-21 0 -40 -10t-33 -31.5t-22 -56.5t-8 -84v-84
h126v-62h-126v-260h111q45 0 73 9.5t44.5 29.5t24 50.5t10.5 73.5z" />
    <glyph glyph-name="currency" unicode="&#xa4;" horiz-adv-x="506" 
d="M253 222q57 0 88 40.5t31 102.5q0 30 -8 56.5t-23 46t-37.5 30.5t-50.5 11q-29 0 -51 -11t-37.5 -30.5t-23.5 -46t-8 -56.5q0 -31 8 -57t23.5 -45t37.5 -30t51 -11zM19 168l69 71q-38 55 -38 126t38 124l-69 71l45 43l67 -69q24 18 54.5 29t67.5 11q36 0 67 -11t55 -29
l67 69l45 -43l-69 -71q37 -54 37 -124q0 -35 -10 -67t-28 -58l70 -72l-45 -43l-68 69q-49 -37 -121 -37t-121 37l-68 -69z" />
    <glyph glyph-name="yen" unicode="&#xa5;" 
d="M348 378h93v-58h-123l-36 -60v-22h139v-58h-139v-180l-64 -8v188h-139v58h139v22l-38 60h-121v58h91l-165 308l68 16l49 -96l32 -59l16 -31q5 -9 6 -12l1 -1l-1 1l52 -98l28 -52q9 -17 11 -21.5t3 -7.5l197 377l68 -16z" />
    <glyph glyph-name="brokenbar" unicode="&#xa6;" horiz-adv-x="222" 
d="M82 379v426h58v-426h-58zM82 -183v426h58v-426h-58z" />
    <glyph glyph-name="section" unicode="&#xa7;" 
d="M448 207q0 -54 -34 -86.5t-88 -34.5q12 -12 24.5 -27t22.5 -32t16.5 -35.5t6.5 -36.5q0 -71 -42.5 -105t-109.5 -34q-55 0 -95 28t-64 76l50 29q32 -85 120 -85q38 0 60.5 23t22.5 61q0 26 -21 55.5t-53 61.5l-69 66q-37 34 -69 68.5t-53 69t-21 67.5q0 54 32 84t83 37
q-24 20 -40.5 48t-16.5 60q0 63 38.5 100t101.5 37q60 0 101.5 -30.5t65.5 -84.5l-50 -24q-16 37 -45.5 64t-71.5 27q-16 0 -31 -6.5t-26 -17.5t-18 -26t-7 -31q0 -27 20.5 -54t51.5 -56l68 -58q36 -30 67.5 -62t52 -65.5t20.5 -70.5zM390 191q0 12 -6.5 28.5t-18 34.5
t-26.5 36.5t-33 36.5q-30 30 -58 51q-23 17 -43 27t-37 10q-21 0 -39.5 -16t-18.5 -38q0 -30 22.5 -70.5t55.5 -76.5q17 -19 35 -34t35 -26q19 -12 36.5 -19t32.5 -7q25 0 44 19t19 44z" />
    <glyph glyph-name="dieresis" unicode="&#xa8;" horiz-adv-x="222" 
d="M23 573l-43 52l43 53l45 -53zM197 573l-43 52l43 53l45 -53z" />
    <glyph glyph-name="copyright" unicode="&#xa9;" horiz-adv-x="800" 
d="M591 272q-7 -35 -23.5 -63.5t-39.5 -48.5t-52.5 -31t-63.5 -11q-50 0 -89.5 17.5t-67.5 48t-43 71.5t-15 89t14.5 89t41.5 71t66.5 47t89.5 17q34 0 65.5 -10t56 -29t40.5 -47t20 -64h-56q-9 42 -41.5 70t-83.5 28q-37 0 -66 -13.5t-48.5 -37t-30 -54.5t-10.5 -66
q0 -34 11 -65.5t31.5 -56t49.5 -39t65 -14.5q51 0 83 29.5t40 72.5h56zM703 344q0 65 -23 121t-63.5 97t-96 64.5t-119.5 23.5q-65 0 -120.5 -23.5t-96.5 -64.5t-64 -97t-23 -121q0 -66 23 -122.5t64 -97.5t96.5 -64.5t120.5 -23.5q64 0 119.5 23.5t96 64.5t63.5 97.5
t23 122.5zM761 344q0 -75 -28.5 -141t-78 -114.5t-115 -76.5t-138.5 -28q-74 0 -140 28t-115.5 76.5t-78 114.5t-28.5 141t28.5 140t78 113.5t115.5 76.5t140 28q73 0 138.5 -28t115 -76.5t78 -113.5t28.5 -140z" />
    <glyph glyph-name="guillemotleft" unicode="&#xab;" horiz-adv-x="444" 
d="M214 112l-140 139l140 139l34 -32l-110 -107l110 -107zM358 112l-140 139l140 139l34 -32l-110 -107l110 -107z" />
    <glyph glyph-name="logicalnot" unicode="&#xac;" horiz-adv-x="600" 
d="M493 99v222h-444v58h502v-280h-58z" />
    <glyph glyph-name="registered" unicode="&#xae;" horiz-adv-x="800" 
d="M761 344q0 -75 -28.5 -141t-78 -114.5t-115 -76.5t-138.5 -28q-74 0 -140 28t-115.5 76.5t-78 114.5t-28.5 141t28.5 140t78 113.5t115.5 76.5t140 28q73 0 138.5 -28t115 -76.5t78 -113.5t28.5 -140zM703 344q0 65 -23 121t-63.5 97t-96 64.5t-119.5 23.5
q-65 0 -120.5 -23.5t-96.5 -64.5t-64 -97t-23 -121q0 -66 23 -122.5t64 -97.5t96.5 -64.5t120.5 -23.5q64 0 119.5 23.5t96 64.5t63.5 97.5t23 122.5zM520 132l-117 185h-84v-185h-54v424h162q72 0 106.5 -30t34.5 -90q0 -28 -8.5 -48.5t-23 -34.5t-34 -22.5t-41.5 -12.5
l123 -186h-64zM514 438q0 21 -8.5 35t-22.5 21.5t-31.5 10.5t-35.5 3h-97v-143h99q56 0 76 19t20 54z" />
    <glyph glyph-name="degree" unicode="&#xb0;" horiz-adv-x="334" 
d="M331 545q0 -33 -12 -62t-34 -50t-51.5 -33t-65.5 -12t-66.5 12t-52.5 33t-34 50t-12 62t12 62t34 50t52.5 33t66.5 12t65.5 -12t51.5 -33t34 -50t12 -62zM283 545q0 22 -8.5 41.5t-24 34.5t-36.5 24t-46 9q-26 0 -47 -9t-37 -24t-24.5 -34.5t-8.5 -41.5t8.5 -41.5
t24.5 -34.5t37 -24t47 -9q25 0 46 9t36.5 24t24 34.5t8.5 41.5z" />
    <glyph glyph-name="plusminus" unicode="&#xb1;" horiz-adv-x="600" 
d="M49 0v58h502v-58h-502zM329 272v-175h-58v175h-222v58h222v172h58v-172h222v-58h-222z" />
    <glyph glyph-name="uni00B2" unicode="&#xb2;" horiz-adv-x="387" 
d="M220 405h158l-9 -47h-261l81 81l80 81q21 21 39 46t18 57q0 33 -21.5 53.5t-56.5 20.5q-32 0 -54 -20t-22 -52q0 -69 91 -82l-35 -41q-49 8 -78.5 41.5t-29.5 78.5q0 25 9.5 47.5t27 39t40.5 26t50 9.5q60 0 96 -36t36 -93q0 -18 -6.5 -35t-17 -33t-23 -30t-23.5 -25z
" />
    <glyph glyph-name="uni00B3" unicode="&#xb3;" horiz-adv-x="382" 
d="M232 346q-39 0 -71.5 21t-52.5 59l44 26q28 -60 79 -60q35 0 57.5 18t22.5 53q0 25 -11.5 39t-29.5 20.5t-39 8t-40 1.5v44q16 -1 35 -0.5t35.5 6.5t28 18t11.5 34q0 28 -18.5 44t-46.5 16q-24 0 -43.5 -11.5t-40.5 -34.5l-35 33q15 15 28 26t27 18.5t30 11t36 3.5
q23 0 44 -7t36.5 -20t25 -32t9.5 -43q0 -27 -13.5 -47.5t-36.5 -34.5q60 -29 60 -96q0 -27 -11 -48t-29 -36t-42 -22.5t-49 -7.5z" />
    <glyph glyph-name="mu" unicode="&#xb5;" 
d="M388 -8v83h-2q-15 -34 -57 -60.5t-100 -26.5q-42 0 -69.5 12t-47.5 34v-206l-58 -12v686l58 12v-343q0 -60 28 -95.5t94 -35.5q37 0 66 9.5t48.5 35.5t29.5 72t10 119v226l58 12v-514z" />
    <glyph glyph-name="paragraph" unicode="&#xb6;" horiz-adv-x="706" 
d="M556 -200v807h-84v-807h-100v365h-43q-59 0 -109.5 18t-88.5 52.5t-59.5 84t-21.5 112.5t21.5 112.5t59.5 84t88.5 53t109.5 18.5h327v-900h-100z" />
    <glyph glyph-name="periodcentered" unicode="&#xb7;" horiz-adv-x="250" 
d="M125 397l-52 59l52 59l52 -59z" />
    <glyph glyph-name="guillemotright" unicode="&#xbb;" horiz-adv-x="444" 
d="M86 112l-34 32l110 107l-110 107l34 32l76 -76l18 -18l13 -12l33 -33zM230 112l-34 32l110 107l-110 107l34 32l76 -76l18 -18l13 -12l33 -33z" />
    <glyph glyph-name="onehalf" unicode="&#xbd;" horiz-adv-x="750" 
d="M165 276v363l-116 -61l-13 26l177 98v-421zM172 -16h-56l446 718h55zM727 292q0 -21 -7.5 -41.5t-19 -38.5t-25.5 -34t-27 -28l-115 -108h191l-6 -42h-277l138 134l35 34q18 18 32.5 37t23.5 40.5t9 46.5q0 42 -25.5 64.5t-70.5 22.5q-42 0 -67.5 -22t-25.5 -62
q0 -42 23 -68t68 -33l-26 -29q-51 8 -82 43t-31 83q0 28 10.5 51.5t29.5 41t44 27.5t55 10q33 0 59.5 -10t46 -27.5t30 -41t10.5 -50.5z" />
    <glyph glyph-name="florin" unicode="&#x192;" horiz-adv-x="396" 
d="M33 423h106l25 173q8 58 37 89q27 29 70.5 38t103.5 1v-76q-61 5 -87.5 -8t-32.5 -56l-23 -161h118v-70h-128l-54 -385q-9 -63 -40 -94q-23 -23 -58.5 -29t-84.5 0v74q37 -3 60 6.5t29 49.5l55 378h-96v70z" />
    <glyph glyph-name="tonos" unicode="&#x384;" horiz-adv-x="222" 
d="M100 566h-52l111 139h77z" />
    <glyph glyph-name="dieresistonos" unicode="&#x385;" 
d="M234 566h-52l111 139h77zM380 573l-15 17q-6 7 -11 14l-15 18l-2 3l43 53l45 -53zM152 573l-43 52l43 53l45 -53z" />
    <glyph glyph-name="Alphatonos" unicode="&#x386;" horiz-adv-x="667" 
d="M37 566h-52l26 32l16 20l11 14l12 16l18 22l28 35h77zM624 -14l-141 284h-294l-139 -286l-66 16l349 702h2l349 -702zM334 561l-1 -2l-114 -227h229z" />
    <glyph glyph-name="Epsilontonos" unicode="&#x388;" 
d="M-117 566h-52l111 139h77zM463 0h-389v686h371l12 -62h-321v-245h275v-62h-275v-255h338z" />
    <glyph glyph-name="Etatonos" unicode="&#x389;" horiz-adv-x="667" 
d="M-118 566h-52l111 139h77zM530 -8v325h-394v-317l-62 -8v694l62 16v-323h394v307l62 16v-702z" />
    <glyph glyph-name="Iotatonos" unicode="&#x38a;" horiz-adv-x="222" 
d="M80 -8v694l62 16v-702zM-116 566h-52l111 139h77z" />
    <glyph glyph-name="Omicrontonos" unicode="&#x38c;" horiz-adv-x="778" 
d="M752 343q0 -75 -29 -140t-78.5 -114t-115.5 -77t-140 -28t-140 28t-115.5 77t-78.5 114t-29 140t29 140t78.5 114t115.5 77t140 28t140 -28t115.5 -77t78.5 -114t29 -140zM-36 566h-52l111 139h77zM684 343q0 61 -23.5 115t-64 94.5t-94 64t-113.5 23.5t-113.5 -23.5
t-94 -64t-64 -94.5t-23.5 -115t23.5 -115t64 -94.5t94 -64t113.5 -23.5t113.5 23.5t94 64t64 94.5t23.5 115z" />
    <glyph glyph-name="Upsilontonos" unicode="&#x38e;" 
d="M-196 566h-52l111 139h77zM163 -8l-71 16l139 251l-256 427l64 16l228 -377l2 3l195 374l68 -16z" />
    <glyph glyph-name="Omegatonos" unicode="&#x38f;" horiz-adv-x="778" 
d="M-55 566h-52l111 139h77zM752 369q0 -50 -14.5 -97t-41.5 -87.5t-66 -72t-88 -50.5h182l-11 -62h-283v74q54 12 100.5 39t80.5 65.5t53.5 87t19.5 103.5q0 61 -23.5 111t-64 85.5t-94 55t-113.5 19.5t-113.5 -19.5t-94 -55t-64 -85.5t-23.5 -111q0 -60 19 -113t53.5 -93
t82.5 -63.5t107 -25.5v-74h-292l-11 62h155q-38 17 -71 48.5t-57.5 72t-39 88t-14.5 98.5q0 75 29 136t78.5 105t115.5 68t140 24t140 -24t115.5 -68t78.5 -105t29 -136z" />
    <glyph glyph-name="iotadieresistonos" unicode="&#x390;" horiz-adv-x="222" 
d="M82 -12v514l58 12v-514zM6 573l-43 52l43 53l45 -53zM88 566h-52l111 139h77zM234 573l-43 52l43 53l45 -53z" />
    <glyph glyph-name="Alpha" unicode="&#x391;" horiz-adv-x="667" 
d="M624 -14l-141 284h-294l-139 -286l-66 16l349 702h2l349 -702zM334 561l-1 -2l-114 -227h229z" />
    <glyph glyph-name="Beta" unicode="&#x392;" 
d="M456 186q0 -91 -52.5 -138.5t-163.5 -47.5h-172v686h174q88 0 141 -43t53 -137q0 -107 -90 -151q57 -28 83.5 -67t26.5 -102zM374 505q0 58 -36 88.5t-88 30.5h-120v-245h94q75 0 112.5 33t37.5 93zM388 186q0 57 -33.5 94t-99.5 37h-125v-255h105q46 0 75.5 10t47 27
t24 39.5t6.5 47.5z" />
    <glyph glyph-name="Gamma" unicode="&#x393;" horiz-adv-x="389" 
d="M136 624v-624l-62 -8v694h292l12 -62h-242z" />
    <glyph glyph-name="uni0394" unicode="&#x394;" horiz-adv-x="667" 
d="M-16 0l349 702h2l322 -647l27 -55h-700zM334 561l-2 -3l-246 -496h497z" />
    <glyph glyph-name="Epsilon" unicode="&#x395;" 
d="M463 0h-389v686h371l12 -62h-321v-245h275v-62h-275v-255h338z" />
    <glyph glyph-name="Zeta" unicode="&#x396;" horiz-adv-x="556" 
d="M529 0h-516l400 624h-381l14 62h481l-399 -624h414z" />
    <glyph glyph-name="Eta" unicode="&#x397;" horiz-adv-x="667" 
d="M530 -8v325h-394v-317l-62 -8v694l62 16v-323h394v307l62 16v-702z" />
    <glyph glyph-name="Theta" unicode="&#x398;" horiz-adv-x="778" 
d="M145 310v54h481v-54h-481zM684 343q0 61 -23.5 115t-64 94.5t-94 64t-113.5 23.5t-113.5 -23.5t-94 -64t-64 -94.5t-23.5 -115t23.5 -115t64 -94.5t94 -64t113.5 -23.5t113.5 23.5t94 64t64 94.5t23.5 115zM752 343q0 -75 -29 -140t-78.5 -114t-115.5 -77t-140 -28
t-140 28t-115.5 77t-78.5 114t-29 140t29 140t78.5 114t115.5 77t140 28t140 -28t115.5 -77t78.5 -114t29 -140z" />
    <glyph glyph-name="Iota" unicode="&#x399;" horiz-adv-x="222" 
d="M80 -8v694l62 16v-702z" />
    <glyph glyph-name="Kappa" unicode="&#x39a;" 
d="M449 -8l-314 364h-7v-356l-62 -8v694l62 16v-334h7l290 334l70 -21l-275 -316l296 -343z" />
    <glyph glyph-name="Lambda" unicode="&#x39b;" horiz-adv-x="611" 
d="M569 -16l-268 564l-1 -2l-253 -562l-65 16l122 270l88 192l57 127l34 74q6 14 10 22.5t6 13.5l5 10l-1 -3q-1 -3 331 -706z" />
    <glyph glyph-name="Mu" unicode="&#x39c;" horiz-adv-x="778" 
d="M700 -8l-98 508h-2l-208 -516h-2l-216 516h-2l-94 -508l-62 8l140 702h2l233 -559l231 559h2l138 -702z" />
    <glyph glyph-name="Nu" unicode="&#x39d;" horiz-adv-x="667" 
d="M594 -16l-459 554h-2v-538l-62 -8v710h2l459 -551h2v535l62 12v-714h-2z" />
    <glyph glyph-name="Xi" unicode="&#x39e;" horiz-adv-x="487" 
d="M451 0h-413v62h424zM94 317v62h305v-62h-305zM48 624l12 62h373v-62h-385z" />
    <glyph glyph-name="Omicron" unicode="&#x39f;" horiz-adv-x="778" 
d="M752 343q0 -75 -29 -140t-78.5 -114t-115.5 -77t-140 -28t-140 28t-115.5 77t-78.5 114t-29 140t29 140t78.5 114t115.5 77t140 28t140 -28t115.5 -77t78.5 -114t29 -140zM684 343q0 61 -23.5 115t-64 94.5t-94 64t-113.5 23.5t-113.5 -23.5t-94 -64t-64 -94.5
t-23.5 -115t23.5 -115t64 -94.5t94 -64t113.5 -23.5t113.5 23.5t94 64t64 94.5t23.5 115z" />
    <glyph glyph-name="Pi" unicode="&#x3a0;" horiz-adv-x="667" 
d="M530 -8v632h-394v-624l-62 -8v693h518v-685z" />
    <glyph glyph-name="Rho" unicode="&#x3a1;" horiz-adv-x="444" 
d="M423 458q0 -112 -64 -170t-185 -58h-47v-230l-62 -8v694h129q105 0 167 -59t62 -169zM355 458q0 78 -41 122t-110 44h-77v-332h57q85 0 128 44t43 122z" />
    <glyph glyph-name="Sigma" unicode="&#x3a3;" horiz-adv-x="556" 
d="M529 0h-516l227 354l-209 332h481l14 -62h-381l173 -270l-190 -292h414z" />
    <glyph glyph-name="Tau" unicode="&#x3a4;" horiz-adv-x="444" 
d="M253 624v-624l-62 -8v632h-190l14 62h419v-62h-181z" />
    <glyph glyph-name="Upsilon" unicode="&#x3a5;" 
d="M163 -8l-71 16l139 251l-256 427l64 16l228 -377l2 3l195 374l68 -16z" />
    <glyph glyph-name="Phi" unicode="&#x3a6;" horiz-adv-x="638" 
d="M606 358q0 -51 -17.5 -95t-50 -75.5t-78.5 -49.5t-103 -18h-7v-120l-62 -8v128h-7q-57 0 -103 18t-78.5 49.5t-50 75.5t-17.5 95q0 55 16 99t46 75t72 47.5t95 16.5h27v90l62 16v-106h27q52 0 94.5 -16.5t72.5 -47.5t46 -75t16 -99zM538 358q0 39 -11 71.5t-30.5 56
t-47.5 36t-62 12.5h-37v-352h17q88 0 129.5 49t41.5 127zM288 534h-37q-34 0 -62 -12.5t-47.5 -36t-30.5 -56t-11 -71.5q0 -78 41.5 -127t129.5 -49h17v352z" />
    <glyph glyph-name="Chi" unicode="&#x3a7;" horiz-adv-x="556" 
d="M519 -8l-237 318l-229 -318l-64 27l253 351l-220 296l52 28l208 -277l190 277l56 -28l-208 -302l260 -340z" />
    <glyph glyph-name="Psi" unicode="&#x3a8;" horiz-adv-x="638" 
d="M600 334q0 -51 -16.5 -95t-48 -76.5t-76.5 -50.5t-102 -18h-7v-94l-62 -8v102h-7q-57 0 -102 18.5t-76.5 51.5t-48 77.5t-16.5 95.5v349l62 16v-370q0 -78 41.5 -127t129.5 -49h17v530l62 16v-546h17q88 0 129.5 49t41.5 127v354l62 16v-368z" />
    <glyph glyph-name="uni03A9" unicode="&#x3a9;" horiz-adv-x="778" 
d="M752 369q0 -50 -14.5 -97t-41.5 -87.5t-66 -72t-88 -50.5h182l-11 -62h-283v74q54 12 100.5 39t80.5 65.5t53.5 87t19.5 103.5q0 61 -23.5 111t-64 85.5t-94 55t-113.5 19.5t-113.5 -19.5t-94 -55t-64 -85.5t-23.5 -111q0 -60 19 -113t53.5 -93t82.5 -63.5t107 -25.5v-74
h-292l-11 62h155q-38 17 -71 48.5t-57.5 72t-39 88t-14.5 98.5q0 75 29 136t78.5 105t115.5 68t140 24t140 -24t115.5 -68t78.5 -105t29 -136z" />
    <glyph glyph-name="Iotadieresis" unicode="&#x3aa;" horiz-adv-x="222" 
d="M80 -8v694l62 16v-702zM23 733l-43 52l43 53l45 -53zM197 733l-43 52l43 53l45 -53z" />
    <glyph glyph-name="Upsilondieresis" unicode="&#x3ab;" 
d="M163 -8l-71 16l139 251l-256 427l64 16l227 -376q3 5 12 22l32 60l59 112l95 182l68 -16zM348 733l-43 52l43 53l45 -53zM174 733l-43 52l43 53l45 -53z" />
    <glyph glyph-name="alphatonos" unicode="&#x3ac;" horiz-adv-x="611" 
d="M338 566h-52l111 139h77zM494 -12v96h-2q-14 -19 -35 -36t-47 -30.5t-55.5 -21.5t-59.5 -8q-55 0 -102.5 19t-83 54t-56 84t-20.5 108q0 55 20 102.5t55.5 83t83 55.5t101.5 20q63 0 112.5 -28.5t86.5 -70.5h2v86l58 12v-513zM494 250q0 49 -16.5 87t-44.5 64.5t-65 40.5
t-78 14q-45 0 -81.5 -17.5t-62.5 -46.5t-40.5 -65.5t-14.5 -73.5q0 -44 14.5 -82t40.5 -65.5t63.5 -43.5t82.5 -16q42 0 79 16.5t64 44.5t43 65t16 78z" />
    <glyph glyph-name="epsilontonos" unicode="&#x3ad;" horiz-adv-x="440" 
d="M410 47q-46 -32 -92.5 -46t-101.5 -14q-35 0 -68.5 9t-59.5 27t-42 44.5t-16 62.5q0 25 9 48t25.5 41.5t39 30.5t49.5 15q-53 6 -77 39t-24 75q0 34 15 59.5t40 42t57 24.5t65 8q28 0 50.5 -3t42 -9.5t38.5 -15.5t39 -21v-64q-17 16 -42 27q-21 10 -51 18t-69 8
q-17 0 -38 -4.5t-39.5 -14t-31 -24t-12.5 -35.5q0 -27 13 -43.5t33.5 -26t44.5 -12.5t45 -3h61v-55h-66q-23 0 -49 -4.5t-48.5 -16.5t-37 -32t-14.5 -50q0 -24 11 -41t29 -28t40 -16.5t45 -5.5q46 0 94 20t93 55v-69zM233 566h-52l111 139h77z" />
    <glyph glyph-name="etatonos" unicode="&#x3ae;" 
d="M388 -8v358q0 55 -33.5 83.5t-93.5 28.5q-21 0 -46.5 -8t-48.5 -24.5t-38.5 -42.5t-15.5 -62v-325l-58 -8v510l58 12v-83h2q20 34 59.5 58.5t85.5 24.5q36 0 70 -8t60 -28.5t41.5 -54.5t15.5 -86v-337zM252 566h-52l111 139h77z" />
    <glyph glyph-name="iotatonos" unicode="&#x3af;" horiz-adv-x="222" 
d="M82 -12v514l58 12v-514zM127 566h-52l111 139h77z" />
    <glyph glyph-name="upsilondieresistonos" unicode="&#x3b0;" 
d="M462 174q0 -87 -51 -136.5t-148 -49.5q-40 0 -77.5 7t-67 27t-47 56.5t-17.5 95.5v328l58 12v-333q0 -44 12.5 -71.5t33.5 -43t48.5 -21t56.5 -5.5q66 0 103.5 36t37.5 105v333l58 -12v-328zM152 573l-43 52l43 53l45 -53zM234 566h-52l111 139h77zM380 573l-43 52l43 53
l45 -53z" />
    <glyph glyph-name="alpha" unicode="&#x3b1;" horiz-adv-x="610" 
d="M493 -12v96h-2q-14 -19 -35 -36t-47 -30.5t-55.5 -21.5t-59.5 -8q-55 0 -102.5 19t-83 54t-56 84t-20.5 108q0 55 20 102.5t55.5 83t83 55.5t101.5 20q63 0 112.5 -28.5t86.5 -70.5h2v86l58 12v-513zM493 250q0 49 -16.5 87t-44.5 64.5t-65 40.5t-78 14
q-45 0 -81.5 -17.5t-62.5 -46.5t-40.5 -65.5t-14.5 -73.5q0 -44 14.5 -82t40.5 -65.5t63.5 -43.5t82.5 -16q42 0 79 16.5t64 44.5t43 65t16 78z" />
    <glyph glyph-name="beta" unicode="&#x3b2;" horiz-adv-x="556" 
d="M527 206q0 -47 -17 -86.5t-46 -69t-69 -46t-86 -16.5q-54 0 -97.5 27.5t-68.5 72.5h-2v-261l-58 -12v676q0 61 14.5 104.5t41 72t62.5 42t79 13.5q40 0 74 -14.5t59.5 -39.5t40 -59t14.5 -73q0 -92 -74 -146q28 -11 52 -29.5t42 -42.5t28.5 -53t10.5 -60zM469 195
q0 88 -78 125q-57 28 -154 28v54q33 0 64 6t55 21t39 39.5t15 62.5q0 30 -11 55t-30 42.5t-44.5 27t-53.5 9.5q-48 0 -74.5 -18t-38.5 -47.5t-14.5 -68.5t-2.5 -81v-274l24 4q5 -28 17 -52.5t31 -42.5t43.5 -28.5t53.5 -10.5q36 0 65 12.5t50 33.5t32.5 47.5t11.5 55.5z" />
    <glyph glyph-name="gamma" unicode="&#x3b3;" horiz-adv-x="444" 
d="M251 47v-223l-58 -12v235l-214 455l56 12l187 -386l4 8l177 378l62 -12z" />
    <glyph glyph-name="delta" unicode="&#x3b4;" 
d="M482 232q0 -46 -17.5 -89t-48.5 -76.5t-73.5 -53.5t-92.5 -20q-57 0 -101.5 20t-75.5 54t-47.5 77.5t-17.5 91.5q-1 61 19 109.5t55.5 80t84 45t104.5 5.5l-171 183v62h320l-21 -57h-228l42 -43l38 -40l31 -32l28 -29l21 -23l12 -12l39 -39q18 -17 34 -37t30 -44.5
t26 -59.5q5 -15 7.5 -35t2.5 -38zM420 232q0 38 -14 73t-38.5 62t-57.5 43t-70 16q-36 0 -67 -12t-54 -35.5t-36 -59t-13 -83.5q0 -35 13 -67t36.5 -57.5t56.5 -40.5t74 -15q36 0 67 14.5t54 39t36 56t13 66.5z" />
    <glyph glyph-name="epsilon" unicode="&#x3b5;" horiz-adv-x="440" 
d="M410 47q-46 -32 -93 -46t-101 -14q-35 0 -68.5 9t-59.5 27t-42 44.5t-16 62.5q0 25 9 48t25.5 41.5t39 30.5t49.5 15q-53 6 -77 39t-24 75q0 34 15 59.5t40 42t57 24.5t65 8q54 0 92 -12.5t78 -36.5v-64q-16 11 -31.5 20.5t-34.5 16t-42 11t-54 5.5q-17 0 -38 -4.5
t-39.5 -14t-31 -24t-12.5 -35.5q0 -27 13 -43.5t33.5 -26t44.5 -12.5t45 -3h60v-55h-65q-23 0 -49 -4.5t-48.5 -16.5t-37 -32t-14.5 -50q0 -24 11 -41t29 -28t40 -16.5t45 -5.5q46 0 94 20t93 55v-69z" />
    <glyph glyph-name="zeta" unicode="&#x3b6;" horiz-adv-x="444" 
d="M444 722l-22 -23l-22 -23l-39 -40q-20 -21 -34 -38l-81 -88q-39 -44 -69 -89t-48 -93t-18 -103q0 -57 17 -89.5t53 -46.5q21 -8 40 -12t38 -6.5t38.5 -4t40.5 -4.5q34 -5 55.5 -20t32 -37t12 -48t-4.5 -53q-4 -18 -5 -26l-3 -14l-4 -16q-2 -10 -7 -31l-59 17l15 53
q16 60 -6 90t-83 33q-40 2 -81.5 7.5t-75.5 25.5t-56 60.5t-22 111.5q0 59 12.5 108t43 99t82.5 108.5t132 136.5h-215l16 55h327z" />
    <glyph glyph-name="eta" unicode="&#x3b7;" 
d="M388 -8v358q0 55 -33.5 83.5t-93.5 28.5q-21 0 -46.5 -8t-48.5 -24.5t-38.5 -42.5t-15.5 -62v-325l-58 -8v510l58 12v-83h2q20 34 59.5 58.5t85.5 24.5q36 0 70 -8t60 -28.5t41.5 -54.5t15.5 -86v-337z" />
    <glyph glyph-name="theta" unicode="&#x3b8;" 
d="M469 343q0 -36 -5 -76.5t-15.5 -80.5t-27.5 -76.5t-41.5 -64.5t-56.5 -44.5t-73 -16.5q-60 0 -102 36t-68 89.5t-37.5 116.5t-11.5 117q0 39 5 81t16 81.5t28 75.5t41.5 62.5t56.5 42.5t72 16q60 0 102 -35t68 -88.5t37.5 -116.5t11.5 -119zM404 374q0 37 -9.5 84
t-28.5 88t-48 69.5t-68 28.5t-68 -27t-48 -67.5t-28.5 -88t-9.5 -87.5h308zM96 319q0 -37 9 -85t28 -90.5t48 -72t69 -29.5t69 30t48 72.5t28 90.5t9 84h-308z" />
    <glyph glyph-name="iota" unicode="&#x3b9;" horiz-adv-x="222" 
d="M82 -12v514l58 12v-514z" />
    <glyph glyph-name="kappa" unicode="&#x3ba;" horiz-adv-x="389" 
d="M369 -8l-125 122l-77 75l-41 40l-16 15q-1 2 -2 2l2 -2v-244l-58 -12v513l58 12v-255l-1 -2q-1 -1 2 3l13 15l36 41l68 79l108 126l46 -28l-203 -236q2 -2 2 -1.5t3.5 -3.5l13.5 -15l36 -35l66 -67l106 -108z" />
    <glyph glyph-name="lambda" unicode="&#x3bb;" horiz-adv-x="524" 
d="M448 0l-176 366l-201 -366l-57 12l225 415l-124 259l56 12l335 -686z" />
    <glyph glyph-name="uni03BC" unicode="&#x3bc;" 
d="M388 -8v83h-2q-15 -34 -57 -60.5t-100 -26.5q-42 0 -69.5 12t-47.5 34v-206l-58 -12v686l58 12v-343q0 -60 28 -95.5t94 -35.5q37 0 66 9.5t48.5 35.5t29.5 72t10 119v226l58 12v-514z" />
    <glyph glyph-name="nu" unicode="&#x3bd;" horiz-adv-x="444" 
d="M223 -12h-2l-242 514l56 12l187 -386l1 2l180 384l62 -12z" />
    <glyph glyph-name="xi" unicode="&#x3be;" horiz-adv-x="480" 
d="M453 657h-16q-33 0 -78 -13t-84.5 -35.5t-66 -51.5t-23.5 -60q3 -30 26.5 -50t56 -31t68.5 -15.5t65 -4.5h43l-14 -62h-59q-48 0 -93 -10t-78 -31.5t-51.5 -54.5t-14.5 -79q3 -34 20.5 -52t42.5 -26.5t53 -10.5l55 -4q79 -6 112.5 -48.5t9.5 -140.5l-7 -27l-8 -33l-55 19
l13 46q6 21 6.5 41t-5 37t-18 29t-32.5 16q-20 5 -38.5 6t-35.5 3q-47 4 -79 16.5t-52.5 30.5t-30.5 41t-13 49q-4 34 5 72t33.5 69.5t64.5 52t99 20.5q-44 9 -73 23t-46 31.5t-24 38.5t-7 44q0 13 6 34.5t25.5 45.5t56 47t97.5 38h-206l16 54h357z" />
    <glyph glyph-name="omicron" unicode="&#x3bf;" horiz-adv-x="556" 
d="M535 251q0 -51 -19.5 -98t-53.5 -84t-81.5 -59t-102.5 -22q-56 0 -103 22t-81 59t-53.5 84t-19.5 98t19.5 98t53.5 84t81 59t103 22q55 0 102.5 -22t81.5 -59t53.5 -84t19.5 -98zM477 251q0 40 -15 77t-42 65.5t-63.5 45.5t-78.5 17t-78.5 -17t-63.5 -45.5t-42 -65.5
t-15 -77t15 -77t42 -65.5t63.5 -45.5t78.5 -17t78.5 17t63.5 45.5t42 65.5t15 77z" />
    <glyph glyph-name="pi" unicode="&#x3c0;" 
d="M388 -8v459h-276v-451l-58 -8v512h392v-504z" />
    <glyph glyph-name="rho" unicode="&#x3c1;" horiz-adv-x="611" 
d="M578 249q0 -55 -20 -102.5t-55.5 -83t-83 -55.5t-101.5 -20q-31 0 -61 9t-57 24t-48.5 34.5t-34.5 40.5v-268l-58 -12v294q0 59 0.5 101.5t4 75t12 58.5t24.5 51q36 56 94.5 87t121.5 31q55 0 102.5 -21.5t83 -58t56 -84.5t20.5 -101zM520 249q0 44 -14.5 82t-40.5 65.5
t-63.5 43.5t-82.5 16q-42 0 -79 -16.5t-64 -44.5t-43 -65t-16 -78q0 -49 16.5 -87t44.5 -64.5t65 -40.5t78 -14q45 0 81.5 17.5t62.5 46.5t40.5 65t14.5 74z" />
    <glyph glyph-name="sigma1" unicode="&#x3c2;" horiz-adv-x="521" 
d="M422 424q-20 16 -42.5 25.5t-66.5 9.5t-81 -14.5t-63.5 -41t-41 -63.5t-14.5 -82q0 -40 20.5 -70t53 -53t73.5 -41t82 -34q30 -12 47 -28.5t24.5 -37t7 -44.5t-5.5 -52q-3 -18 -8 -38t-12 -43l-59 13q12 41 18 70.5t4 50.5t-13.5 34.5t-34.5 22.5q-47 18 -92.5 38
t-81.5 49t-58.5 69.5t-22.5 100.5q0 58 21 104t56.5 78.5t83 50t100.5 17.5q36 0 69 -10t71 -37z" />
    <glyph glyph-name="sigma" unicode="&#x3c3;" horiz-adv-x="556" 
d="M544 452h-115q24 -12 44 -34t33.5 -49t21 -57.5t7.5 -60.5q0 -51 -19.5 -98t-53.5 -84t-81.5 -59t-102.5 -22q-56 0 -103 22t-81 59t-53.5 84t-19.5 98t19.5 98t53.5 84t81 59t103 22q6 0 36 -2.5t72 -2.5h175zM477 251q0 40 -15 77t-42 65.5t-63.5 45.5t-78.5 17
t-78.5 -17t-63.5 -45.5t-42 -65.5t-15 -77t15 -77t42 -65.5t63.5 -45.5t78.5 -17t78.5 17t63.5 45.5t42 65.5t15 77z" />
    <glyph glyph-name="tau" unicode="&#x3c4;" horiz-adv-x="310" 
d="M192 444v-443l-58 -12v455h-123l14 58h274v-58h-107z" />
    <glyph glyph-name="upsilon" unicode="&#x3c5;" 
d="M462 174q0 -87 -51 -136.5t-148 -49.5q-40 0 -77.5 7t-67 27t-47 56.5t-17.5 95.5v328l58 12v-333q0 -44 12.5 -71.5t33.5 -43t48.5 -21t56.5 -5.5q66 0 103.5 36t37.5 105v333l58 -12v-328z" />
    <glyph glyph-name="phi" unicode="&#x3c6;" horiz-adv-x="652" 
d="M614 256q0 -41 -15.5 -86t-45.5 -83t-73.5 -62.5t-98.5 -24.5h-29v-175l-58 -8v183h-13q-5 0 -9 -0.5t-5 0.5q-45 0 -87 21t-75 56.5t-52.5 81.5t-19.5 97q0 54 17 96.5t43.5 74.5t58.5 53.5t61 32.5l25 -51q-29 -13 -54.5 -33t-45 -45.5t-31 -55t-11.5 -62.5
q0 -56 20 -95.5t48 -65t58.5 -37t52.5 -11.5q1 -2 8 -1t9 1v455h91q58 -1 101.5 -23.5t72.5 -58t43 -81t14 -93.5zM557 270q0 33 -11.5 67t-34.5 61.5t-58 45t-82 17.5h-20v-404h49q21 0 54 20q49 32 76 86t27 107z" />
    <glyph glyph-name="chi" unicode="&#x3c7;" horiz-adv-x="444" 
d="M391 -8l-171 219l-1 -2l-161 -217l-55 24l178 244l-179 230l52 24l166 -211l2 2l159 209l52 -24l-176 -230l186 -244z" />
    <glyph glyph-name="psi" unicode="&#x3c8;" horiz-adv-x="592" 
d="M564 218q0 -64 -17.5 -106t-49 -67t-75.5 -35t-97 -10v-183l-59 -12v195q-51 0 -95 10t-75.5 34.5t-49.5 67.5t-18 109v281l58 12v-286q0 -58 15 -93t40 -54t57.5 -25t67.5 -6v585l59 12v-597q44 0 78 8.5t57 28.5t34.5 53.5t11.5 84.5v289l58 -12v-284z" />
    <glyph glyph-name="omega" unicode="&#x3c9;" horiz-adv-x="708" 
d="M676 217q0 -42 -9.5 -82.5t-30 -72.5t-52.5 -51.5t-76 -19.5q-22 0 -45.5 5t-45 17t-38 31t-24.5 47q-8 -28 -25 -47t-38.5 -31t-45.5 -17t-46 -5q-44 0 -76 19.5t-52.5 51.5t-30 72.5t-9.5 82.5q0 44 12 90t39 86.5t71.5 71.5t110.5 45v-58q-44 -10 -76.5 -33.5
t-54.5 -55t-33 -69.5t-11 -77q0 -23 6 -52.5t20.5 -56t37.5 -44.5t56 -18q20 0 37.5 7t31.5 19t23 26.5t12 29.5q6 33 6 68v145h68v-145q0 -35 6 -68q3 -15 12 -29.5t23 -26.5t31.5 -19t37.5 -7q33 0 56 18t37.5 44.5t20.5 56t6 52.5q0 39 -12.5 77t-36 69.5t-58 55
t-78.5 33.5v58q65 -14 111 -45.5t75.5 -72t43 -86.5t13.5 -89z" />
    <glyph glyph-name="iotadieresis" unicode="&#x3ca;" horiz-adv-x="222" 
d="M82 -12v514l58 12v-514zM192 678l45 -53l-45 -52l-13 15l-17 21q-8 10 -13 15v1zM18 678l45 -53l-45 -52l-43 52z" />
    <glyph glyph-name="upsilondieresis" unicode="&#x3cb;" 
d="M462 174q0 -87 -51 -136.5t-148 -49.5q-40 0 -77.5 7t-67 27t-47 56.5t-17.5 95.5v328l58 12v-333q0 -44 12.5 -71.5t33.5 -43t48.5 -21t56.5 -5.5q66 0 103.5 36t37.5 105v333l58 -12v-328zM343 678l45 -53l-45 -52l-13 15l-17 21q-8 10 -13 15v1zM169 678l45 -53
l-45 -52l-43 52z" />
    <glyph glyph-name="omicrontonos" unicode="&#x3cc;" horiz-adv-x="556" 
d="M267 566h-52l111 139h77zM535 251q0 -51 -19.5 -98t-53.5 -84t-81.5 -59t-102.5 -22q-56 0 -103 22t-81 59t-53.5 84t-19.5 98t19.5 98t53.5 84t81 59t103 22q55 0 102.5 -22t81.5 -59t53.5 -84t19.5 -98zM477 251q0 40 -15 77t-42 65.5t-63.5 45.5t-78.5 17t-78.5 -17
t-63.5 -45.5t-42 -65.5t-15 -77t15 -77t42 -65.5t63.5 -45.5t78.5 -17t78.5 17t63.5 45.5t42 65.5t15 77z" />
    <glyph glyph-name="upsilontonos" unicode="&#x3cd;" 
d="M462 174q0 -87 -51 -136.5t-148 -49.5q-40 0 -77.5 7t-67 27t-47 56.5t-17.5 95.5v328l58 12v-333q0 -44 12.5 -71.5t33.5 -43t48.5 -21t56.5 -5.5q66 0 103.5 36t37.5 105v333l58 -12v-328zM247 566h-52l111 139h77z" />
    <glyph glyph-name="omegatonos" unicode="&#x3ce;" horiz-adv-x="708" 
d="M676 217q0 -42 -9.5 -82.5t-30 -72.5t-52.5 -51.5t-76 -19.5q-22 0 -45.5 5t-45 17t-38 31t-24.5 47q-8 -28 -25 -47t-38.5 -31t-45.5 -17t-46 -5q-44 0 -76 19.5t-52.5 51.5t-30 72.5t-9.5 82.5q0 44 12 90t39 86.5t71.5 71.5t110.5 45v-58q-44 -10 -76.5 -33.5
t-54.5 -55t-33 -69.5t-11 -77q0 -23 6 -52.5t20.5 -56t37.5 -44.5t56 -18q20 0 37.5 7t31.5 19t23 26.5t12 29.5q6 33 6 68v145h68v-145q0 -35 6 -68q3 -15 12 -29.5t23 -26.5t31.5 -19t37.5 -7q33 0 56 18t37.5 44.5t20.5 56t6 52.5q0 39 -12.5 77t-36 69.5t-58 55
t-78.5 33.5v58q65 -14 111 -45.5t75.5 -72t43 -86.5t13.5 -89zM383 566h-52l111 139h77z" />
    <glyph glyph-name="endash" unicode="&#x2013;" 
d="M0 229v44h500v-44h-500z" />
    <glyph glyph-name="emdash" unicode="&#x2014;" horiz-adv-x="1000" 
d="M0 229v44h1000v-44h-1000z" />
    <glyph glyph-name="uni2015" unicode="&#x2015;" horiz-adv-x="1000" 
d="M0 229v44h1000v-44h-1000z" />
    <glyph glyph-name="quoteleft" unicode="&#x2018;" horiz-adv-x="222" 
d="M160 683q-5 -9 -14.5 -21.5t-18.5 -26t-15.5 -27t-6.5 -24.5q0 -12 12.5 -24.5t23.5 -15.5l-43 -55q-19 12 -36.5 30t-17.5 42q0 23 13.5 46t30.5 45l21 27l17 23z" />
    <glyph glyph-name="quoteright" unicode="&#x2019;" horiz-adv-x="222" 
d="M178 630q0 -18 -9 -36.5t-22 -37t-27 -35.5t-24 -32l-34 20l14 20l18 27q9 14 16 27t7 22q0 15 -12.5 26t-23.5 17l43 54q20 -13 37 -30t17 -42z" />
    <glyph glyph-name="quotesinglbase" unicode="&#x201a;" horiz-adv-x="222" 
d="M178 30q0 -18 -9 -36.5t-22 -37t-27 -35.5t-24 -32l-34 20l14 20l18 27q9 14 16 27t7 22q0 15 -12.5 26t-23.5 17l43 54q20 -13 37 -30t17 -42z" />
    <glyph glyph-name="quotedblleft" unicode="&#x201c;" horiz-adv-x="333" 
d="M146 679q-6 -8 -17 -21l-22 -27q-11 -14 -19 -27.5t-8 -22.5q0 -11 11 -24t21 -18l-41 -39q-15 11 -31.5 31.5t-16.5 40.5q0 16 10.5 34t25.5 35.5t31 33.5t26 27q6 -4 9 -7q5 -4 10.5 -7.5t10.5 -8.5zM283 679q-6 -8 -17 -21l-22 -27q-11 -14 -19 -27.5t-8 -22.5
q0 -11 11 -24t21 -18l-41 -39q-15 11 -31.5 31.5t-16.5 40.5q0 16 10.5 34t25.5 35.5t31 33.5t26 27q6 -4 9 -7q5 -4 10.5 -7.5t10.5 -8.5z" />
    <glyph glyph-name="quotedblright" unicode="&#x201d;" horiz-adv-x="333" 
d="M173 630q0 -15 -10.5 -33t-25.5 -36t-31 -35l-26 -26l-30 23q6 8 17 21l22 27q11 14 19 27.5t8 22.5q0 11 -11 24t-21 18l20 19l21 20q15 -11 31.5 -31.5t16.5 -40.5zM310 630q0 -15 -10.5 -33t-25.5 -36t-31 -35l-26 -26l-30 23q6 8 17 21l22 27q11 14 19 27.5t8 22.5
q0 11 -11 24t-21 18l20 19l21 20q15 -11 31.5 -31.5t16.5 -40.5z" />
    <glyph glyph-name="quotedblbase" unicode="&#x201e;" horiz-adv-x="333" 
d="M173 30q0 -15 -10.5 -33t-25.5 -36t-31 -35l-26 -26l-30 23q6 8 17 21l22 27q11 14 19 27.5t8 22.5q0 11 -11 24t-21 18l20 19l21 20q15 -11 31.5 -31.5t16.5 -40.5zM310 30q0 -15 -10.5 -33t-25.5 -36t-31 -35l-26 -26l-30 23q6 8 17 21l22 27q11 14 19 27.5t8 22.5
q0 11 -11 24t-21 18l20 19l21 20q15 -11 31.5 -31.5t16.5 -40.5z" />
    <glyph glyph-name="dagger" unicode="&#x2020;" 
d="M262 450l26 -185l-24 -364v-85h-27v85l-24 364l26 185l-173 -21v72l173 -21l-25 206h74l-25 -206l171 21v-72z" />
    <glyph glyph-name="daggerdbl" unicode="&#x2021;" 
d="M213 265l26 185l-173 -21v72l173 -21l-25 206h74l-25 -206l171 21v-72l-172 21l26 -185l-26 -185l172 21v-72l-171 21l25 -206h-74l25 206l-173 -21v72l173 -21z" />
    <glyph glyph-name="bullet" unicode="&#x2022;" 
d="M421 342q0 -36 -13.5 -67t-37 -54t-54.5 -36.5t-67 -13.5t-67 13t-54 36.5t-36.5 54.5t-13.5 67t13 67.5t36 54.5t54.5 36.5t67.5 13.5t67 -13.5t54.5 -36.5t37 -54.5t13.5 -67.5z" />
    <glyph glyph-name="ellipsis" unicode="&#x2026;" horiz-adv-x="771" 
d="M140 -6l-52 59l52 59l52 -59zM369 -6l-52 59l52 59l52 -59zM588 -6l-52 59l52 59l52 -59z" />
    <glyph glyph-name="perthousand" unicode="&#x2030;" horiz-adv-x="1000" 
d="M984 149q0 -31 -11 -58t-30.5 -47t-45.5 -31.5t-56 -11.5t-56 11.5t-45 31.5t-30 47t-11 58t11 58t30 47.5t45 32t56 11.5t56 -11.5t45.5 -32t30.5 -47.5t11 -58zM114 -16h-42l389 572v30q-27 -11 -43 -14t-30 -3q-18 0 -37 5.5t-54 25.5q6 -32 7.5 -44t1.5 -20
q0 -31 -11 -58t-30.5 -47t-45.5 -31.5t-56 -11.5t-56 11.5t-45 31.5t-30 47t-11 58t11 58t30 47.5t45 32t56 11.5q23 0 40.5 -6t36.5 -18q5 -3 10 -7l12 -8q24 -17 55 -31t82 -14q48 0 89.5 23.5t66.5 77.5h30zM624 149q0 -31 -11 -58t-30.5 -47t-45.5 -31.5t-56 -11.5
t-56 11.5t-45 31.5t-30 47t-11 58t11 58t30.5 47.5t45.5 32t55 11.5q30 0 56 -12t45.5 -32t30.5 -47.5t11 -57.5zM914 149q0 32 -21.5 54t-51.5 22q-31 0 -51.5 -22t-20.5 -54t21 -53.5t51 -21.5t51.5 21.5t21.5 53.5zM236 536q0 32 -21.5 54t-51.5 22q-31 0 -51.5 -22
t-20.5 -54t21 -53.5t51 -21.5t51.5 21.5t21.5 53.5zM554 149q0 32 -21.5 54t-51.5 22q-31 0 -51.5 -22t-20.5 -54t21 -53.5t51 -21.5t51.5 21.5t21.5 53.5z" />
    <glyph glyph-name="guilsinglleft" unicode="&#x2039;" horiz-adv-x="300" 
d="M214 112l-140 139l140 139l34 -32l-110 -107l110 -107z" />
    <glyph glyph-name="guilsinglright" unicode="&#x203a;" horiz-adv-x="300" 
d="M86 112l-34 32l110 107l-110 107l34 32l76 -76l18 -18l13 -12l33 -33z" />
    <glyph glyph-name="Euro" unicode="&#x20ac;" horiz-adv-x="626" 
d="M575 16q-29 -14 -63 -23t-66 -9q-59 0 -113 19t-98.5 53.5t-77 82.5t-48.5 106h-115l11 58h93q-1 10 -1.5 19.5t-0.5 20.5t0.5 21t1.5 21h-104l11 58h105q16 57 49 105t77 82t98 53t112 19q32 0 66 -9t63 -23l-12 -62q-23 13 -55 22.5t-67 9.5q-47 0 -88 -15t-75 -41
t-59 -62t-39 -79h353l-11 -58h-355q-3 -21 -3 -42q0 -11 0.5 -20.5t1.5 -19.5h340l-11 -58h-316q14 -44 39 -80.5t59 -62.5t75.5 -41t88.5 -15q48 0 85 14.5t58 31.5z" />
    <glyph glyph-name="trademark" unicode="&#x2122;" horiz-adv-x="990" 
d="M852 274v357h-2l-143 -357h-36l-143 358h-2v-358h-58v412h95l128 -323l124 323h95v-412h-58zM270 632v-358h-58v358h-132v54h322v-54h-132z" />
    <glyph glyph-name="Omega" unicode="&#x2126;" horiz-adv-x="778" 
d="M752 369q0 -50 -14.5 -97t-41.5 -87.5t-66 -72t-88 -50.5h182l-11 -62h-283v74q54 12 100.5 39t80.5 65.5t53.5 87t19.5 103.5q0 61 -23.5 111t-64 85.5t-94 55t-113.5 19.5t-113.5 -19.5t-94 -55t-64 -85.5t-23.5 -111q0 -60 19 -113t53.5 -93t82.5 -63.5t107 -25.5v-74
h-292l-11 62h155q-38 17 -71 48.5t-57.5 72t-39 88t-14.5 98.5q0 75 29 136t78.5 105t115.5 68t140 24t140 -24t115.5 -68t78.5 -105t29 -136z" />
    <glyph glyph-name="Delta" unicode="&#x2206;" horiz-adv-x="667" 
d="M-16 0l349 702h2l322 -647l27 -55h-700zM334 561l-2 -3l-246 -496h497z" />
    <glyph glyph-name="glyph1" horiz-adv-x="0" 
 />
    <glyph glyph-name="glyph2" horiz-adv-x="0" 
 />
    <glyph glyph-name="glyph201" horiz-adv-x="333" 
d="M39 224v54h255v-54h-255z" />
    </font>
</defs>
</svg>
